<?xml version="1.0" encoding="utf-8"?>
<!-- Uploaded to: SVG Repo, www.svgrepo.com, Generator: SVG Repo Mixer Tools -->
<svg width="800px" height="800px" viewBox="-2.12 0 53.822 53.822" xmlns="http://www.w3.org/2000/svg">
  <g id="Group_40" data-name="Group 40" transform="translate(-365.882 -1567.965)">
    <rect id="Rectangle_20" data-name="Rectangle 20" width="34.875" height="20.804" transform="translate(372.355 1598.983)" fill="#d1d3d4" stroke="#231f20" stroke-linecap="round" stroke-linejoin="round" stroke-width="4"/>
    <g id="Group_39" data-name="Group 39">
      <path id="Path_102" data-name="Path 102" d="M401.775,1576.587a6.622,6.622,0,1,1-6.621-6.622A6.621,6.621,0,0,1,401.775,1576.587Z" fill="#d1d3d4" stroke="#231f20" stroke-linecap="round" stroke-linejoin="round" stroke-width="4"/>
      <path id="Path_103" data-name="Path 103" d="M411.127,1595.679H407.22c1.641-1.93,2.636-3.256,2.636-5.987a11.042,11.042,0,0,0-16.555-9.576,12.846,12.846,0,0,0-23.082,7.772c0,3.486,1.393,5.475,3.646,7.791h-3.646a2.338,2.338,0,0,0-2.337,2.338v1.891a2.338,2.338,0,0,0,2.337,2.337h40.908a2.338,2.338,0,0,0,2.338-2.337v-1.891A2.338,2.338,0,0,0,411.127,1595.679Z" fill="#ffffff" stroke="#231f20" stroke-linecap="round" stroke-linejoin="round" stroke-width="4"/>
    </g>
    <line id="Line_44" data-name="Line 44" y1="13.919" transform="translate(381.38 1603.878)" fill="#d1d3d4" stroke="#231f20" stroke-linecap="round" stroke-linejoin="round" stroke-width="4"/>
    <line id="Line_45" data-name="Line 45" y1="13.919" transform="translate(389.946 1603.878)" fill="#d1d3d4" stroke="#231f20" stroke-linecap="round" stroke-linejoin="round" stroke-width="4"/>
    <line id="Line_46" data-name="Line 46" y1="13.919" transform="translate(398.512 1603.878)" fill="#d1d3d4" stroke="#231f20" stroke-linecap="round" stroke-linejoin="round" stroke-width="4"/>
  </g>
</svg>